<?xml version="1.0" encoding="UTF-8"?>
<svg viewBox="0 0 930 1074" xmlns="http://www.w3.org/2000/svg">
 <g fill-rule="evenodd" stroke-width=".5">
  <path d="m0 537v-537h930v1074h-930v-537zm561-376.8v-0.2l-0.5-0.2q-0.5-0.3-0.5-0.60001v-0.2l-1 0.2q-1 0.3-13.5-0.2t-15-1.8l-2.5-1.2-0.2-1-0.3-1-0.3-0.2-0.2-0.3-0.2-0.3-0.3-0.2-0.3-2q-0.20001-2 1.3-2.2 1.5-0.3 2.5-0.60001l1-0.2v-2l-3.5 0.2q-3.5 0.3-4.5-0.2t-2-9.5l-1-9 7.2 0.3q7.3 0.2 8.8 2.7t2.8-0.3q1.2-2.7 43.7-3 42.5-0.2 42.5 2.3t1.8 2q1.7-0.5 2-2 0.20001-1.5 3 0 2.7 1.5 3 4 0.20001 2.5 4.2 3t3.5 1.7q-0.5 1.3-3.3 3-2.7 1.8-1.7 2.8t1.3 3q0.20001 2 5 2.5 4.7 0.5 6.4 1.7 1.8 1.3 4.8 0.8t7.5-0.5 6.5 2 9 1.3q7-0.8 7 14.2t-3.2 14q-3.3-1-10-4.2-6.8-3.3-8.6-2.6-1.7 0.8-1.4 2.6 0.20001 1.7 1.4 3 1.3 1.2 1 3.4-0.20001 2.3 6.8 5.3t10.2 3.7q3.3 0.8 3.6 11.8 0.20001 11-2.8 10.8-3-0.3-4.5 0l-1.5 0.2 0.2 1 0.3 1 0.3 0.2 0.2 0.3 0.2 0.3 0.3 0.2 0.3 0.2 0.2 0.3 3.5 1.3q3.5 1.2 3.5 7.2v6l-3-0.2q-3-0.3-6.5-1.3t-4 0.7q-0.5 1.8-3 1.6-2.5-0.3-8-3.6-5.5-3.2-5.3-4.2 0.29999-1-2-1.2-2.2-0.3-7.2-3.3t-5.8-4.3q-0.70001-1.2-3.4-1.4-2.8-0.3-3.8 2.4-1 2.8-4 3-3 0.3-4.5 2.3t-6 2.5l-4.5 0.5-1.5-0.3-1.5-0.2-0.2-1-0.3-1-0.3-0.2-0.2-0.3-0.2-0.3-0.3-0.2v-5l0.3-0.2 0.2-0.3 0.2-0.3 0.3-0.2 0.5-1 0.5-1v-1l-0.3-1.5q-0.20001-1.5 4.8-2.3 5-0.7 8-2.2t3.2-1.8l0.3-0.2 0.5-1q0.5-1 1.2-3 0.79999-2-2-3.5-2.7-1.5-1.2-12.5l1.5-11-0.3-0.2-0.2-0.3-0.2-0.3-0.3-0.2-0.3-0.2-0.2-0.3-0.2-0.3-0.3-0.2-0.3-0.2-0.2-0.3-0.2-0.3-0.3-0.2-0.3-0.2-0.2-0.3-0.2-0.3-0.3-0.2-0.3-0.2-0.2-0.3-1-0.5-1-0.5-0.2-0.3-0.3-0.2-0.5 1-0.5 1-0.3 0.2-0.2 0.3-0.2 0.3-0.3 0.2-0.3 0.2-0.2 0.3-3.5 0.3q-3.5 0.2-3.3 1.7 0.29999 1.5-0.40002 4.7l-0.8 3.3-0.2 0.3-0.3 0.2-0.3 0.2-0.2 0.3-1 0.5-1 0.5-1 0.5-1 0.5h-2l-0.2-0.3-0.3-0.2-0.3-0.2-0.2-0.3-0.2-0.3-0.3-0.2-0.5-1-0.5-1-0.5-1.5-0.5-1.5v-6l0.5-1.5 0.5-1.5 0.3-0.2 0.2-0.3 0.2-0.3 0.3-0.2 0.3-0.2 0.2-0.3 1.5-0.5q1.5-0.5 4.5 0.5t3.2 0.7q0.29999-0.2 0.59998-0.39999l0.2-0.3 1.5-0.5 1.5-0.5 2-0.3 2-0.2v-2l-1-0.2-1-0.3-1.5-0.5-1.5-0.5-2.5-0.3q-2.5-0.2-2.5 1.3t-1.5 1.3q-1.5-0.3-1.5-3.6v-3.2l-2 0.2q-2 0.3-3 1.8l-1 1.5-0.2 0.3-0.3 0.2-0.3 0.2-0.2 0.3-0.2 0.3-0.3 0.2-0.3-0.2-0.2-0.3-0.2-0.3-0.3-0.2-0.3-0.2-0.2-0.3-0.2-0.3-0.3-0.2v-1q0-1 1.3-1.8 1.2-0.7 1.4-2 0.29999-1.2-3-2-3.2-0.7-7-4-3.7-3.2-7-4.2l-3.2-1 0.2 1q0.29999 1 0 3.5-0.20001 2.5-5.2 2.5t-5 1.5-2 1.5h-2l-0.2 0.5-0.3 0.5h-0.5l-0.2 0.5-0.3 0.5h-0.5l0.2 1 0.3 1 0.3 0.2 0.2 0.3 0.2 0.3 0.3 0.2 3.5 2.5q3.5 2.5 4.5 6t-1 5.5-0.5 5 4.5 6 3 7.5-3.3 9.3q-3.2 4.7-4.7 5-1.5 0.2-1.5 2.2t-4 1.8q-4-0.3-5-1.3t-2-1h-1l-2 0.3-2 0.2v3l2 0.5q2 0.5-0.20001 7-2.3 6.5-2.3 12.5t-2.5 11-4.2 5.8q-1.8 0.7-4 1-2.3 0.2-4.6 3-2.2 2.7-3.7 3-1.5 0.20001 0.29999 3.2 1.7 3 1.4 4.8-0.20001 1.7-3.7 3-3.5 1.2-3.5 3.7t-1.5 2.5-1.5 2.5-1 2.5-2.2 3.5q-1.3 3.5-3 4.5-1.8 1-4.6 11-2.7 10-1.7 20t2.3 11.2q1.2 1.3 5.4 1.6 4.3 0.20001 8.8 10.7t4.2 11.5l-0.2 1 5-1.8q5-1.7 9.5-1.2t11.3 2.8q6.7 2.2 11.2 5.2t15.2 7.2q10.8 4.3 20.8 3.3t12.5-0.70001q2.5 0.20001 4.3 7.2 1.7 7 3.7 11t3 8.5 6.7 9.7q5.8 5.3 8.3 5.6 2.5 0.20001 4.5 4 2 3.7 6 4l4 0.2 0.2-3q0.29999-3 2.6-3 2.2 0 2.2-7t-1.5-7.8q-1.5-0.70001-5.3-9.4-3.7-8.8-7-11.3-3.2-2.5-4-5.5-0.70001-3 4.3-8t8-13 1-17-6-13-11.3-8.2q-7.2-4.3-6-14.6 1.3-10.2-1-14.2-2.2-4-4.7-4.2-2.5-0.29999-1.7-3.6 0.70001-3.2 0-6.4-0.79999-3.3-3-6-2.3-2.8-2.8-6.3l-0.5-3.5 0.3-0.2 0.2-0.3 1.5-0.5 1.5-0.5 9.2-1.3q9.3-1.2 11-3.7 1.8-2.5 7.3-1.3 5.5 1.3 10.3 3.6 4.7 2.2 5.4 3.4 0.79999 1.3 5.3 1.3t8.5-0.29999q4-0.20001 5.8 5.8 1.7 6 4.4 10.2 2.8 4.3 4.6 5 1.7 0.79999 2 1.8 0.20001 1 4.7 2.2 4.5 1.3 9 1.6l4.5 0.2 0.2-1q0.29999-1 1.3-4t2-4 0-12.5l-1-11.5-0.3-0.2-0.2-0.3 0.2-0.3 0.3-0.2 0.3-0.2 0.2-0.3h3l1 0.5 1 0.5 0.2 0.3 0.3 0.2 0.3 0.2 0.2 0.3 11.5 7.3q11.5 7.2 13 9 1.5 1.7 5.5 2.7t9 6.7q5 5.8 9.5 9.6 4.5 3.7 7.5 4 3 0.20001 4.5 2.4 1.5 2.3 10.5 1.8t10.5-1.5 5-0.29999q3.5 0.79999 2.5 3-1 2.3 10 3.3t14.5 6 5.7 6.7q2.3 1.8 2.6 7.3l0.2 5.5 3.5-1.5q3.5-1.5 4 1.3 0.5 2.7 2.3 4.4 1.7 1.8 0.70001 5.3-1 3.5-0.5 8l0.5 4.5 0.3 2 0.2 2h2l0.2-3q0.29999-3 0.59998-3.2l0.2-0.3 2-0.5 2-0.5 0.2-0.3 0.3-0.2 0.3 2.5q0.20001 2.5 4.7 1.7 4.5-0.70001 5-3 0.5-2.2 1.7-2.7 1.3-0.5 1.6-2l0.2-1.5 1.5 0.2 1.5 0.3 0.2 0.3 0.3 0.2 0.3-0.2 0.2-0.3 0.2-0.3 0.3-0.2 0.3 0.2 0.2 0.3 1.5 0.3q1.5 0.20001 3 4.4 1.5 4.3 3.5 5.8t3 0 2-1.8l1-0.2-0.2 2q-0.29999 2-0.29999 5v3l0.5 1.5 0.5 1.5 0.3 0.2 0.2 0.3h2l0.2-0.3 0.3-0.2v-6l0.3-0.2 0.2-0.3 0.2-0.3 0.3-0.2 0.5 2 0.5 2 0.5 1 0.5 1v14l-0.3 0.2-0.2 0.3-0.2 0.3-0.3 0.2-0.5-1.5-0.5-1.5-0.5-1q-0.5-1-1-3.5l-0.5-2.5-0.3-0.2-0.2-0.3-0.2-0.3-0.3-0.2-0.3-0.2-0.2-0.3-1.5-0.3-1.5-0.2 0.2 2 0.3 2v2l-1 2q-1 2-1.5 6l-0.5 4-0.3 0.2-0.2 0.3-0.2 0.3-0.3 0.2-0.3 1-0.2 1h-4l0.2-1.5 0.3-1.5 0.3-0.2 0.2-0.3 0.2-0.3q0.29999-0.20001 0.79999-3.7l0.5-3.5v-1l-0.3-0.2-0.2-0.3h-2l-0.2 0.3-0.3 0.2-0.5 2-0.5 2-0.3 0.2-0.2 0.3h-1.5q-1.5 0-2.5 0t-1.5 1.3q-0.5 1.2-9.5 6-9 4.7-9.8 6l-0.7 1.2-0.3 0.2-0.2 0.3-1 0.5-1 0.5h-3l-1-0.3-1-0.2-0.2-1-0.3-1v-2l0.5-1q0.5-1 1-4l0.5-3-0.3-0.2q-0.20001-0.29999-2.7 0.40002-2.5 0.79999-2.5-0.20001t1-1-1.2-20.5l-2.3-20.5-0.3-2.5-0.2-2.5-1 0.2-1 0.3-1 0.5-1 0.5-1 0.5-1 0.5-0.2 0.3-0.3 0.2-0.3 0.2-0.2 0.3-0.2 0.3-0.3 0.2-0.3 0.2-0.2 0.3-0.2 0.3-0.3 0.2-0.3 0.2-0.2 0.3-0.2 0.3q-0.29999 0.20001-0.79999 0.70001t-3.5 12-7.7 14.7q-4.8 3.3-11.8 6.8t-16.5 8.5-14.7 9.3q-5.3 4.2-6.3 10.7t-2.3 7.7q-1.2 1.3-4 6l-2.7 4.8-0.5 3-0.5 3v3l0.3-0.2 0.2-0.3 0.2-0.3 0.3-0.2 0.3-0.2 0.2-0.3 0.2-0.3 0.3-0.2 0.5-1 0.5-1 0.3-0.2 0.2-0.3 0.2-0.3 0.3-0.2 0.5-1 0.5-1 4.5-4.5q4.5-4.5 6.2-7.3 1.8-2.7 6.8-6.2t7.5-4l2.5-0.5h3l1.5 0.3 1.5 0.2 0.2 1 0.3 1 0.3 0.2 0.2 0.3 0.2 0.3 0.3 0.2 0.5 1 0.5 1-1.7 6.2q-1.8 6.3-2 6.6l-0.3 0.2-0.3 0.2-0.2 0.3-1.5 0.3-1.5 0.2 0.2 1 0.3 1 0.3 0.2 0.2 0.3 2.2-0.7q2.3-0.79999 3.6-1.6 1.2-0.70001 1.4-1l0.3-0.2 1.3 5.5q1.2 5.5 4.2 7.7 3 2.3 4 2.6l1 0.2 0.2 1 0.3 1 0.3 0.2 0.2 0.3h4l1-0.5 1-0.5 0.2-0.3 0.3-0.2 0.3-0.2 0.2-0.3-2-0.5q-2-0.5-3.2-1.2l-1.3-0.8-0.3-2.5-0.2-2.5 1 0.2 1 0.3 0.2 0.3 0.3 0.2 0.3 0.2 0.2 0.3h4.5q4.5 0 7.5-2t3.2-2.3l0.3-0.2 0.3-0.2 0.2-0.3h2l0.2 0.3 0.3 0.2v3q0 3 0.29999 4l0.2 1 1-0.2 1-0.3 1-0.5 1-0.5h2l1 0.3 1 0.2-0.2-1.5-0.3-1.5-0.5-1q-0.5-1-0.5-9v-8l0.3-1.5 0.2-1.5 2 0.2 2 0.3 0.2 0.3 0.3 0.2 0.5 1 0.5 1 0.5 1 0.5 1 0.7 1.8q0.79999 1.7 4 2.4 3.3 0.79999 2.3 5.3t-2.5 7.5-1.2 5q0.20001 2-0.79999 2t-4.5 5.2q-3.5 5.3-4.5 5.6-1 0.20001-1.8 7.7-0.70001 7.5-3.4 9.3-2.8 1.7-5.8 1.4-3-0.20001-4.2 5.3-1.3 5.5-2.3 6.5t-1.5 2l-0.5 1-0.3 0.2-0.2 0.3h-2l-0.2-0.3-0.3-0.2-0.3-0.2-0.2-0.3-2-0.5-2-0.5-0.2-0.3-0.3-0.2-0.5-1-0.5-1-0.3-0.2-0.2-0.3-0.2-0.3-0.3-0.2-0.3-0.2-0.2-0.3-0.2-0.3-0.3-0.2v-3.5q0-3.5 1.5-8l1.5-4.5 0.3-0.2 0.2-0.3 0.2-0.3 0.3-0.2v-3l-0.3-0.2-0.2-0.3-1-0.3-1-0.2-0.2 1-0.3 1-0.5 1-0.5 1-0.3 0.2-0.2 0.3-0.2 0.3-0.3 0.2-0.3 0.2-0.2 0.3-4.2 3.3q-4.3 3.2-3.6 6.2 0.79999 3-3 6.5-3.7 3.5-7 8.3-3.2 4.7-4.7 5-1.5 0.20001-2 2.2t-2.7 3.5q-2.3 1.5-2.6 2.5-0.20001 1-1.4 1.5-1.3 0.5-3 8.5-1.8 8-0.29999 8t2 3.2q0.5 3.3 4 5.8t4.5 2l1-0.5 0.2-0.3 0.3-0.2 0.3 0.2 0.2 0.3 0.2 0.3 0.3 0.2v1l-0.3 0.2-0.2 0.3-0.2 0.3-0.3 0.2-0.3 0.2-0.2 0.3-0.2 0.3-0.3 0.2v4l-0.3 0.2-0.2 0.3-0.2 0.3-0.3 0.2-0.3 0.2q-0.20001 0.29999-3 0-2.7-0.20001-5.4 3-2.8 3.3-5 4-2.3 0.79999-0.59998 1.3 1.8 0.5-1.7 4.3-3.5 3.7-9 7.2t-5.3 8.8q0.29999 5.2-1.7 12.2t-6.3 7.2l-4.2 0.3 0.2 0.3 0.3 0.2 0.3 0.2 0.2 0.3 0.2 0.3 0.3 0.2 0.3 0.2 0.2 0.3 0.2 0.3 0.3 0.2 2 2q2 2 2.5 5t0 6l-0.5 3-0.5 1-0.5 1-0.5 3-0.5 3-0.3 0.2-0.2 0.3-1 0.3-1 0.2 0.2-2 0.3-2v-2q0-2-1.7-2.5l-1.8-0.5v-2h-4l0.2 2.5 0.3 2.5 0.5 1 0.5 1 0.3 4.5q0.20001 4.5 2.2 4.5t2 1 2.8 3.5q2.7 2.5 2.2 5.5t-1.5 5 0.70001 2.5q1.8 0.5 1.8 4.3 0 3.7-1.8 5-1.7 1.2-1.2 4.2t1.5 3-1.7 2.8q-2.8 2.7-3.8 3-1 0.20001-4.2 5.2-3.3 5-3.8 7.5t-3 3-5.5 3.5-5.7 10q-2.8 7-7.6 10.5-4.7 3.5-4.4 4.5 0.20001 1-1.6 2.5-1.7 1.5-3.2 10.5t0.20001 16.8q1.8 7.7 2.8 10 1 2.2 2 2.2t3.8 4.5q2.7 4.5 3 6.5 0.20001 2 1.4 2.5 1.3 0.5 2.8 3.5t6.5 11 5 15 0 10.5v3.5l-0.3 0.2-0.2 0.3-0.2 0.3-0.3 0.2-0.3 0.2-0.2 0.3-0.2 0.3-0.3 0.2-0.3 0.2-0.2 0.3-0.2 0.3-0.3 0.2-0.3 0.2-0.2 0.3-0.2 0.3-0.3 0.2-0.3 0.2-0.2 0.3-0.2 0.3-0.3 0.2-0.3 0.2-0.2 0.3-1.5 0.3-1.5 0.2-0.2-1.5q-0.29999-1.5-1.6-2-1.2-0.5-1.7-2.5t-3.5-2.2q-3-0.29999-6-3.8t-4-5.8q-1-2.2-2-2.4-1-0.29999-3.5-3-2.5-2.8-3.5-2.8t-1.2-1q-0.29999-1 0.40002-3.5 0.79999-2.5-1.2-2.3-2 0.29999-2.2-5-0.29999-5.2-1.3-8.7t-3.3-3.7q-2.2-0.29999-6.2-4.8t-8.5-5.5-6.5 1.5-6.5 4-6.3-0.20001q-1.7-1.8-5-3-3.2-1.3-13.2-0.29999t-12.2 1.3q-2.3 0.20001-12 2-9.8 1.7-13.8 2.2l-4 0.5h-4l-0.2 0.3-0.3 0.2-0.3 0.2-0.2 0.3-1 0.3-1 0.2v2l5 0.8q5 0.70001 5.2 1 0.29999 0.20001 0.59998 0.40002l0.2 0.3 0.2 0.3 0.3 0.2 0.5 2 0.5 2 0.3 1.5 0.2 1.5-1-0.2-1-0.3-0.2-0.3-0.3-0.2-0.3-1-0.2-1-2.5 0.8q-2.5 0.70001-2 2 0.5 1.2-5.5 2.2t-7-0.79999q-1-1.7-2.5-1.4-1.5 0.20001-1.5-0.79999t-4.2-1.5q-4.3-0.5-6 1.3-1.8 1.7-7.8 0.70001-6-1-10-1.3-4-0.20001-5.5 1.6-1.5 1.7-5 1.7t-4.5-0.29999q-1-0.20001-2.5 3.6-1.5 3.7-6 7.2t-5.5 3.8q-1 0.20001-1 1.2 0 1-3.5 1.8-3.5 0.70001-6.3 3-2.7 2.2-4.4 5-1.8 2.7-2.8 3-1 0.20001-1.2 3.2-0.29999 3-1.3 4.5t0.70001 7.7q1.8 6.3 2.6 12.6 0.70001 6.2-0.59998 7.4-1.2 1.3-3 1.6-1.7 0.20001-2.7 20.2t1.3 27.5q2.2 7.5 3.4 8 1.3 0.5 3.6 6.7 2.2 6.3 7.4 11 5.3 4.8 6.6 9 1.2 4.3 5.7 7.3t11.5 5 8 3.5 7.5 1 10-2 12-4 9-0.79999q0.5 1.8 4.7 0.29999 4.3-1.5 5.6-4.3 1.2-2.7 2.7-4.4 1.5-1.8 2.5-1.8t2.5-5.8q1.5-5.7 2.3-9 0.70001-3.2 1.2-7.7 0.5-4.5 4.2-7.3 3.8-2.7 16.3-6.2t14-3.5 5.5 0h4l0.2-0.3 0.3-0.2 0.3-0.2 0.2-0.3h2l0.2 0.3 0.3 0.2-0.5 5q-0.5 5-2.2 6-1.8 1-3.6 6.5-1.7 5.5-1.7 8.5t0 7.5-0.70001 7.7q-0.79999 3.3-2.3 3-1.5-0.20001-1.5-1.2 0-1-1-1h-1l0.8 6.5q0.70001 6.5 0.70001 15.5t-2 11.5-2.5 3.5l-0.5 1-0.3 0.2-0.2 0.3-0.2 0.3-0.3 0.2-0.3 1-0.2 1 1.5 0.2 1.5 0.3 2 0.5 2 0.5 6-1.5q6-1.5 14.5-3t11.5-3 12-2.5 13.2-0.29999q4.3 0.79999 5.6 3.3 1.2 2.5 7.2 2.7 6 0.29999 5.8 3-0.29999 2.8 0.70001 6.8t-1 8.5-0.5 13.5 2.2 9.8q0.79999 0.70001-0.70001 1-1.5 0.20001-1.7 2.7-0.29999 2.5 0.20001 4t-0.5 5.5 1.5 6.5 4.8 5.7q2.2 3.3 8.7 6.8t19.5 4.5 18-1.5 8.8-4.8q3.7-2.2 4.4-3.4 0.79999-1.3 4.8-2.3t12-0.5 14 3.5 10.5 2.5 11.3-9.8q6.7-9.2 8-8.7 1.2 0.5 1.7-10t3.5-12.7q3-2.3 7-3.3t6-4.5 7.8-5.2q5.7-1.8 9.2-5.3t3.8-4.5q0.20001-1 3.2-2t3.5-4.5 2-4.3q1.5-0.70001 1.7-1l0.3-0.2 0.3-0.2 0.2-0.3 0.2-0.3 0.3-0.2 0.3-0.2 0.2-0.3 0.2-0.3 0.3-0.2 0.3-0.2 0.2-0.3 0.2-0.3 0.3-0.2 0.3-0.2 0.2-0.3h4l0.2 0.3 0.3 0.2 0.3 0.2 0.2 0.3 0.2 0.3 0.3 0.2v3l-0.5 1.5-0.5 1.5-0.5 1q-0.5 1-1 2t-3.8 2.2l-3.2 1.3 0.2 0.3 0.3 0.2 0.5 1 0.5 1 0.3 0.2 0.2 0.3 0.2 0.3 0.3 0.2 1.7 2.5q1.8 2.5 3.8 2t2 14v14.5h-41v62l-19-0.2q-19-0.30005-19.8-2-0.70001-1.8-6-7-5.2-5.3-10.7-12.8t-11-8.2q-5.5-0.80005-7.7 3.7-2.3 4.5-6 6.7l-3.8 2.3-0.2 0.3-0.3 0.2-0.3 0.2-0.2 0.3 0.2 0.3 0.3 0.2 2.7 3.2q2.8 3.3 3 3.6001l0.3 0.2v2l-0.3 0.2-0.2 0.3-1 0.5-1 0.5-1 0.5-1 0.5-0.2 0.3-0.3 0.2-0.3 0.2-0.2 0.3-1 0.5-1 0.5-1.5 0.5q-1.5 0.5-3.5 0.19995-2-0.19995-2-2.7t-5-2.3q-5 0.30005-7-1.2t-17-2.2q-15-0.80005-16.5-4.6001-1.5-3.7-8-6.7t-13-3-10-1.5l-3.5-1.5-0.2-0.3-0.3-0.2-0.3-0.2-0.2-0.3-0.2-0.3q-0.29999-0.19995-0.59998-1.7-0.20001-1.5 1.8-2t2-1.5-1.5-1.2q-1.5-0.29999-1.5-3.3t-5-5.5-9-6.5-10.5-6.7q-6.5-2.8-6.3-5.8l0.3-3-0.3-1-0.2-1h-2l-0.2 1q-0.29999 1-1.6 2.2-1.2 1.3-7.2 1.3t-11.5-1-14.5-3.5-14-2.5-12-2.3q-7-2.2-9-4.4-2-2.3-4.2-4.6-2.3-2.2-4.6-2.2-2.2 0-2.2-1t-2-0.5-2.2-1.5q-0.29999-2-3-3.8-2.8-1.7-6.8-3.7t-11-3-10.5 1.5-9.5 4.5-18.2-0.70001q-12.3-2.8-22-6-9.8-3.3-19.8-6.8t-15.5-6.5-8.3-5.3q-2.7-2.2-5-3-2.2-0.70001-11.7-3.7t-12.5-6.5-10.5-7.2q-7.5-3.8-7.5-4.8t-1-1-3-2.8q-2-2.7-4-8-2-5.2 0.5-5.7t1.5-4 0-3.7q1-0.29999 1.2-4 0.29999-3.8-1.2-5.8t-2.5-7.5-4.7-9.3q-3.8-3.7-7.6-9.4-3.7-5.8-6-7.3-2.2-1.5-3.4-3.5-1.3-2-4-4.2-2.8-2.3-5-6.6-2.3-4.2-5.3-6.2t-5.7-3.5q-2.8-1.5-3-2.5-0.29999-1-1.6-1.5-1.2-0.5-1.2-4.5t1-4 0.79999-2q-0.29999-2-7.3-8.5t-7.3-10.3q-0.20001-3.7-4.2-5.7t-6-5.7q-2-3.8-3-3.8t-3.5-3.2q-2.5-3.3-5.5-3.6-3-0.20001-1.8-4.2 1.3-4-1.4-13.2-2.8-9.3-3.6-14-0.70001-4.8-3.4-6.6-2.8-1.7-3.3-3.4-0.5-1.8-3.5-2l-3-0.3-1-0.5-1-0.5-0.2-0.3-0.3-0.2-0.3-0.2-0.2-0.3-0.2-0.3-0.3-0.2-0.3-0.2-0.2-0.3h-3l-0.2 0.3-0.3 0.2 1 13q1 13 2.3 13.5 1.2 0.5 4 5 2.7 4.5 6 10.7 3.2 6.3 5 8 1.7 1.8 2.2 6.3t2.2 5.5q1.8 1 3.3 6.5t3.5 6 4.8 8.5q2.7 8 3.4 10.2 0.79999 2.3 2.6 6 1.7 3.8 2.2 4.8t0.5 6 3.7 5.8q3.8 0.70001 5 3.4 1.3 2.8 1.8 4.3l0.5 1.5 0.3 0.2 0.2 0.3 0.2 0.3 0.3 0.2 0.3 0.2 0.2 0.3 0.2 0.3 0.3 0.2v5l-0.3 0.2-0.2 0.3-1 0.5-1 0.5-0.2 0.3-0.3 0.2-0.3 0.2-0.2 0.3-1 0.5-1 0.5h-1l-0.2-0.3-0.3-0.2-0.5-2-0.5-2-0.5-1q-0.5-1-1.5-2.5t-5.3-6.5q-4.2-5-9.2-7.2-5-2.3-6.2-3.6-1.3-1.2-0.59998-3.2 0.79999-2-0.20001-2.2-1-0.29999-1-9 0-8.8-1-8.8t-1.2-1.5q-0.29999-1.5-6-6.7-5.8-5.3-7.8-5.3t-8.8-7.3l-6.7-7.2-0.5-1-0.5-1-0.3-0.2-0.2-0.3-0.2-0.3-0.3-0.2-0.3-0.2-0.2-0.3-0.2-0.3-0.3-0.2-0.3-0.2-0.2-0.3-0.2-0.3-0.3-0.2-0.3-0.2-0.2-0.3 0.2-0.3 0.3-0.2 0.3-0.2 0.2-0.3 0.2-0.3 0.3-0.2 0.3 0.2 0.2 0.3 3.5 1.5q3.5 1.5 4.5 1.5h1l0.2-0.3 0.3-0.2 0.3-0.2 0.2-0.3 0.2-0.3 0.3-0.2 0.5-1 0.5-1 0.5-2 0.5-2v-3l-0.3-0.2-0.2-0.3-0.2-0.3q-0.29999-0.20001-1.3-2.7t-6.5-8-8.5-16-7-22.5-4.5-18.5-3.5-11-5.3-5.3q-2.2-0.70001-3.2-3.4-1-2.8-3-3-2-0.29999-5-2.6-3-2.2-3.2-3.2-0.3-1-5.8-3.5t-6-7.5-1.5-8-4-9.5-2-11.5-1.3-6.8q-2.2-1.7-3-7-0.7-5.2-1.4-7-0.8-1.7-2.6-7.4-1.7-5.8-2.2-13.3t-1.5-15.5 1-10.5 3.5-11.5 2.5-15.5 4-11 4.5-9 7-17 7-29.5 3.8-17.8l2.2-0.7-0.2-0.3q-0.3-0.20001-1.6-0.70001-1.2-0.5-1.2-1.5t-1-1.2q-1-0.29999-2.5-2.8t-8.3-14.2q-6.7-11.8-7.7-18.3t2.3-6.7q3.2-0.29999 3.2-13.6 0-13.2-2-13.7t-1.2-4q0.7-3.5-1.8-7.5t-2.2-9.5q0.2-5.5 1.2-5.7 1-0.29999 3-5 2-4.8 1-4.8t-1-2.2q0-2.3-1.5-2.8t-1.7-4.2l-0.3-3.8 0.3-0.2 0.2-0.3-0.2-0.3-0.3-0.2-0.5-1-0.5-1-0.3-0.2-0.2-0.3-0.2-0.3-0.3-0.2-1 4q-1 4-1.5 5l-0.5 1-0.5 1-0.5 1-0.3 0.2-0.2 0.3h-1l-0.2-0.3-0.3-0.2-0.5-2.5-0.5-2.5-0.3-0.2-0.2-0.3-0.2-0.3-0.3-0.2-0.3 1.5-0.2 1.5h-2v-4q0-4-1-4t-0.8-2.5q0.3-2.5 1.8-4t1-5.5 0.5-8.5 6.3-5.5l5.2-1 0.2-1.5 0.3-1.5 0.3-1 0.2-1-1 0.2-1 0.3-0.2 0.3-0.3 0.2-0.3 0.2-0.2 0.3-1 0.5-1 0.5-3.8 1.7q-3.7 1.8-4.2 3.3l-0.5 1.5-0.3 0.2-0.2 0.3-0.2 0.3-0.3 0.2-0.3 1-0.2 1h-3l0.2-5q0.3-5 0.8-14.5t2-10.5-0.8-3.2q-2.2-2.3-3.4-8.6-1.3-6.2-3.3-10.2t-2-7-6-10.5-10.3-10.7q-4.2-3.3-5.7-5.8t-2.5-5.2q-1-2.8-2-3-1-0.3-2-2.6-1-2.2-2-2.4-1-0.3-1.2-1.6-0.3-1.2 1-0.7 1.2 0.5 1.2-3.5v-4l-2-0.2-2-0.3-0.2-0.3-0.3-0.2-0.3-0.2-0.2-0.3-0.2-0.3-0.3-0.2-0.3-0.2-0.2-0.3h-1q-1 0-1.5 2.3-0.5 2.2-2 3-1.5 0.7-5.5 1.2t-5.5-0.5-10.5-2l-9-1-0.2-0.3-0.3-0.2-0.3-0.2-0.2-0.3-0.2-0.3-0.3-0.2-0.3-0.2-0.2-0.3-0.2-0.3-0.3-0.2v-3l0.3-0.2 0.2-0.3 1.5-0.3 1.5-0.2 0.2-1.5 0.3-1.5 5.3-3.2q5.2-3.3 5.7-3.8t5-1l4.5-0.5 2-0.5 2-0.5-0.2-0.3-0.3-0.2-0.3-0.2-0.2-0.3-4-0.5-4-0.5-0.2-0.3-0.3-0.2-0.3-0.2-0.2-0.3-0.2-0.3q-0.3-0.2-3 1-2.8 1.3-11.8 3.3t-13 3-2.8 3.3q1.3 2.2 0.60001 3.4-0.8 1.3-15.3 1.3t-18.5 1-11.5-0.5-10.5-0.5-8.5-0.3q-5.5-1.2-5.3-2.2 0.3-1-3.4-2-3.8-1-4.8 0.2-1 1.3-2.5-3.4-1.5-4.8-5-4.6l-3.5 0.3-0.2-0.3-0.3-0.2-0.3-0.2-0.2-0.3-1-0.5-1-0.5-0.2-0.3-0.3-0.2-0.5-1.5-0.5-1.5v-2l0.3-0.2 0.2-0.3h3l7 1q7 1 8.2 2.7 1.3 1.8 1 2.8-0.2 1 11.8 1.8 12 0.7 19.8-0.60001 7.7-1.2 10.4-3 2.8-1.7 3-2l0.3-0.2 0.3-0.2 0.2-0.3 0.2-0.3 0.3-0.2 0.3-0.2 0.2-0.3 1-0.5 1-0.5 1-0.5 1-0.5-0.2-0.3-0.3-0.2-0.3-0.2-0.2-0.3-0.2-0.3-0.3-0.2-0.3-0.2-0.2-0.3-1-0.5q-1-0.5-1.8-1.8-0.7-1.2-3.4-1.2-2.8 0-2.6-5.5 0.3-5.5-1.2-7.5t-5.2-3.2l-3.8-1.3-0.2-0.3-0.3-0.2-0.3-1.5-0.2-1.5 1-0.2 1-0.3 0.2-0.3 0.3-0.2 0.3-0.2 0.2-0.3 0.2-0.3 0.3-0.2 0.3-0.2q0.2-0.3 5.4-4.6 5.3-4.2 7.6-5 2.2-0.7 3-3l0.7-2.2 0.3-0.2 0.2-0.3 3-0.5 3-0.5-0.2-0.3-0.3-0.2-0.3-1.5-0.2-1.5-1 0.2-1 0.3-2.5 0.5q-2.5 0.5-4.3 2.2-1.7 1.8-4 2l-2.2 0.3-1-0.5-1-0.5-1-0.5-1-0.5-0.2-0.3-0.3-0.2-0.5-1.5-0.5-1.5v-2l0.5-1 0.5-1 1.3-5.2q1.2-5.3 4.4-6.6 3.3-1.2 3.3-3.7t2.3-6.7q2.2-4.3 10.4-4.6 8.3-0.2 12-2 3.8-1.7 6.3-1.4 2.5 0.2 3 3.4 0.5 3.3 6 5.8t9 2.5 5.7-2.3q2.3-2.2 2.8-4.2l0.5-2 0.3 0.2 0.2 0.3 1 0.5 1 0.5 1 0.3 1 0.2 0.2-1 0.3-1v-2l-0.3-0.2-0.2-0.3-1-0.5-1-0.5-1.5-0.5q-1.5-0.5-4.5-1.5t-3.8-3.7q-0.7-2.8-3.7-7.3t-3.5-7 1-5 3.2-3.7q1.8-1.3 2.6-5.6l0.7-4.2 0.3-0.2 0.2-0.3h3l4.8 2.3q4.7 2.2 5 3.7 0.2 1.5 3.2 0.7 3-0.7 4 0.3t2 1.5l1 0.5 0.2 0.3 0.3 0.2 0.3 0.2 0.2 0.3 0.2 0.3 0.3 0.2-0.7 1.8q-0.8 1.7-2 2.4-1.3 0.8-1.3 1.8t0.5 3l0.5 2 0.3 0.2 0.2 0.3 0.2 0.3 0.3 0.2 0.3 0.2 0.2 0.3 0.2 0.3 0.3 0.2 0.3 0.2 0.2 0.3h4l0.2-0.3 0.3-0.2 0.3-0.2 0.2-0.3 1-0.3 1-0.2 0.2-1.5 0.3-1.5 1-6.5q1-6.5 3-9t3.7-10.7q1.8-8.3 6.3-9.3t7 2 8 3 10 0 7 3 6 2.5 5-1 4.5 2 8 4.2q5 1.8 4.5 4.8t1.3 3.5q1.7 0.5 1.4 3-0.2 2.5 2 3.5 2.3 1 2.8 6.5t2.8 7.7q2.2 2.3 3.4 2.6 1.3 0.2 2.8 2.7t1.8 6q0.2 3.5 3 6 2.7 2.5 3.4 3.7 0.79999 1.3 3.8 2.8t5.2 4.8q2.3 3.2 4 7 1.8 3.7 5 6.4 3.3 2.8 4.3 7.8t1.7 7.5q0.79999 2.5 3.8 3.3 3 0.7 4-0.8t4.8-0.8q3.7 0.8 4.4 2 0.79999 1.3 2.3 1.6 1.5 0.2 0.70001 3.7-0.70001 3.5 1.6 2.7 2.2-0.7 4.7 0 2.5 0.8 2.5 2.3t3.2 1q3.3-0.5 5-3.7 1.8-3.3 7.3-3.8t7.3-2.8q1.7-2.2 3.4 6 1.8 8.3 3.3 9.3t2-0.3q0.5-1.2 3.5-3 3-1.7 3 3.3t2.2 4.3q2.3-0.8 2.6-1.8 0.20001-1 4.7 0.2 4.5 1.3 7 4.8t6.7 6.8q4.3 3.2 7 6 2.8 2.7 7.6 4 4.7 1.2 6.7 5.2t-1 5.5-3.7 2.7q-0.79999 1.3 6.2 4.3t14.5 2.3q7.5-0.8 8 0.39999 0.5 1.3 2.7 2 2.3 0.8 2.6 1.8 0.20001 1 2 0.5 1.7-0.5 1.7-4.5t-0.5-5 0.79999-2.2q1.2-1.3 8.2-3 7-1.8 8 1.2t2.8 3q1.7 0 1.2 1.5t0.20001 3.5q0.79999 2 3.6 2 2.7 0 5.4 2.2 2.8 2.3 13.8 2.6 11 0.2 11.5-4.3t1.5-4.5 0.5-2.8q-0.5-2.7-4-4-3.5-1.2-3.5-2.7t2.2-2.5q2.3-1 3.6-4.8 1.2-3.7 3-3.4 1.7 0.2 2 1.2 0.20001 1 3.2 1.5t4.8 4q1.7 3.5 1.2 6.5t-3.8 3.5q-3.2 0.5-2.2 2.7 1 2.3 3 2.6 2 0.2 2.5 6.2t1.7 5q1.3-1 1.8-4.5t3.5-6.5 3.3-5.2q0.20001-2.3-1.6-3-1.7-0.8-2-5.6-0.20001-4.7-3.2-5-3-0.2-3.2-2.2-0.29999-2-2.3-4t-2.7-11.5q-0.79999-9.5 0.70001-9.5t2.3-8q0.70001-8 0-10.5-0.79999-2.5 3.4-2 4.3 0.5 3.8 4t-0.79999 6.7q-0.20001 3.3 1.3 5 1.5 1.8 2.5 1.8t5.2 9.5q4.3 9.5 4.3 13.5t4.3 4.2q4.2 0.3 5.2 1.8t0 1.8q-1 0.2 0.79999 3.7 1.7 3.5 3 0 1.2-3.5 4.7-2.7 3.5 0.7 4.7 1.4 1.3 0.8 2 6 0.79999 5.3 1.3 8.3 0.5 3 3 6t4.7 1.7q2.3-1.2 0.29999-6.2t0.29999-5q2.2 0 2.7-7.8 0.5-7.7-0.70001-10.4-1.3-2.8-0.79999-5.3 0.5-2.5 2.2-3.3 1.8-0.7 5.8-1.2t4-0.8z" fill="#fff" stroke="#fff"/>
  <g fill="#ff7f00">
   <path d="m559.8 160l0.2-1 1.5-0.2q1.5-0.3 2.5-0.60001l1-0.2-0.2 1q-0.29999 1-0.79999 2l-0.5 1 0.3 0.2 0.2 0.3 0.2 0.3 0.3 0.2 3.5 2.5q3.5 2.5 4.5 6t-1 5.5-0.5 5 4.5 6 3 7.5-3.3 9.3q-3.2 4.7-4.7 5-1.5 0.2-1.5 2.2t-4 1.8q-4-0.3-5-1.3t-2-1h-1l-2 0.3-2 0.2v3l2 0.5q2 0.5-0.20001 7-2.3 6.5-2.3 12.5t-2.5 11-4.2 5.8q-1.8 0.7-4 1-2.3 0.2-4.6 3-2.2 2.7-3.7 3-1.5 0.20001 0.29999 3.2 1.7 3 1.4 4.8-0.20001 1.7-3.7 3-3.5 1.2-3.5 3.7t-1.5 2.5-1.5 2.5-1 2.5-2.2 3.5q-1.3 3.5-3 4.5-1.8 1-4.6 11-2.7 10-1.7 20t2.3 11.2q1.2 1.3 5.4 1.6 4.3 0.20001 8.8 10.7t4.2 11.5l-0.2 1 5-1.8q5-1.7 9.5-1.2t11.3 2.8q6.7 2.2 11.2 5.2t15.2 7.2q10.8 4.3 20.8 3.3t12.5-0.70001q2.5 0.20001 4.3 7.2 1.7 7 3.7 11t3 8.5 6.7 9.7q5.8 5.3 8.3 5.6 2.5 0.20001 4.5 4 2 3.7 6 4l4 0.2 0.2-3q0.29999-3 2.6-3 2.2 0 2.2-7t-1.5-7.8q-1.5-0.70001-5.3-9.4-3.7-8.8-7-11.3-3.2-2.5-4-5.5-0.70001-3 4.3-8t8-13 1-17-6-13-11.3-8.2q-7.2-4.3-6-14.6 1.3-10.2-1-14.2-2.2-4-4.7-4.2-2.5-0.29999-1.7-3.6 0.70001-3.2 0-6.4-0.79999-3.3-3-6-2.3-2.8-2.8-6.3l-0.5-3.5 0.3-0.2 0.2-0.3 1.5-0.5 1.5-0.5 9.2-1.3q9.3-1.2 11-3.7 1.8-2.5 7.3-1.3 5.5 1.3 10.3 3.6 4.7 2.2 5.4 3.4 0.79999 1.3 5.3 1.3t8.5-0.29999q4-0.20001 5.8 5.8 1.7 6 4.4 10.2 2.8 4.3 4.6 5 1.7 0.79999 2 1.8 0.20001 1 4.7 2.2 4.5 1.3 9 1.6l4.5 0.2 0.2-1q0.29999-1 1.3-4t2-4 0-12.5l-1-11.5-0.3-0.2-0.2-0.3 0.2-0.3 0.3-0.2 0.3-0.2 0.2-0.3h3l1 0.5 1 0.5 0.2 0.3 0.3 0.2 0.3 0.2 0.2 0.3 11.5 7.3q11.5 7.2 13 9 1.5 1.7 5.5 2.7t9 6.7q5 5.8 9.5 9.6 4.5 3.7 7.5 4 3 0.20001 4.5 2.4 1.5 2.3 10.5 1.8t10.5-1.5 5-0.29999q3.5 0.79999 2.5 3-1 2.3 10 3.3t14.5 6 5.7 6.7q2.3 1.8 2.6 7.3l0.2 5.5 3.5-1.5q3.5-1.5 4 1.3 0.5 2.7 2.3 4.4 1.7 1.8 0.70001 5.3-1 3.5-0.5 8l0.5 4.5 0.3 2 0.2 2h2l0.2-3q0.29999-3 0.59998-3.2l0.2-0.3 2-0.5 2-0.5 0.2-0.3 0.3-0.2 0.3 2.5q0.20001 2.5 4.7 1.7 4.5-0.70001 5-3 0.5-2.2 1.7-2.7 1.3-0.5 1.6-2l0.2-1.5 1.5 0.2 1.5 0.3 0.2 0.3 0.3 0.2 0.3-0.2 0.2-0.3 0.2-0.3 0.3-0.2 0.3 0.2 0.2 0.3 1.5 0.3q1.5 0.20001 3 4.4 1.5 4.3 3.5 5.8t3 0 2-1.8l1-0.2-0.2 2q-0.29999 2-0.29999 5v3l0.5 1.5 0.5 1.5 0.3 0.2 0.2 0.3h2l0.2-0.3 0.3-0.2v-6l0.3-0.2 0.2-0.3 0.2-0.3 0.3-0.2 0.5 2 0.5 2 0.5 1 0.5 1v14l-0.3 0.2-0.2 0.3-0.2 0.3-0.3 0.2-0.5-1.5-0.5-1.5-0.5-1q-0.5-1-1-3.5l-0.5-2.5-0.3-0.2-0.2-0.3-0.2-0.3-0.3-0.2-0.3-0.2-0.2-0.3-1.5-0.3-1.5-0.2 0.2 2 0.3 2v2l-1 2q-1 2-1.5 6l-0.5 4-0.3 0.2-0.2 0.3-0.2 0.3-0.3 0.2-0.3 1-0.2 1h-4l0.2-1.5 0.3-1.5 0.3-0.2 0.2-0.3 0.2-0.3q0.29999-0.20001 0.79999-3.7l0.5-3.5v-1l-0.3-0.2-0.2-0.3h-2l-0.2 0.3-0.3 0.2-0.5 2-0.5 2-0.3 0.2-0.2 0.3h-1.5q-1.5 0-2.5 0t-1.5 1.3q-0.5 1.2-9.5 6-9 4.7-9.8 6l-0.7 1.2-0.3 0.2-0.2 0.3-1 0.5-1 0.5h-3l-1-0.3-1-0.2-0.2-1-0.3-1v-2l0.5-1q0.5-1 1-4l0.5-3-0.3-0.2q-0.20001-0.29999-2.7 0.40002-2.5 0.79999-2.5-0.20001t1-1-1.2-20.5l-2.3-20.5-0.3-2.5-0.2-2.5-1 0.2-1 0.3-1 0.5-1 0.5-1 0.5-1 0.5-0.2 0.3-0.3 0.2-0.3 0.2-0.2 0.3-0.2 0.3-0.3 0.2-0.3 0.2-0.2 0.3-0.2 0.3-0.3 0.2-0.3 0.2-0.2 0.3-0.2 0.3q-0.29999 0.20001-0.79999 0.70001t-3.5 12-7.7 14.7q-4.8 3.3-11.8 6.8t-16.5 8.5-14.7 9.3q-5.3 4.2-6.3 10.7t-2.3 7.7q-1.2 1.3-4 6l-2.7 4.8-0.5 3-0.5 3v3l0.3-0.2 0.2-0.3 0.2-0.3 0.3-0.2 0.3-0.2 0.2-0.3 0.2-0.3 0.3-0.2 0.5-1 0.5-1 0.3-0.2 0.2-0.3 0.2-0.3 0.3-0.2 0.5-1 0.5-1 4.5-4.5q4.5-4.5 6.2-7.3 1.8-2.7 6.8-6.2t7.5-4l2.5-0.5h3l1.5 0.3 1.5 0.2 0.2 1 0.3 1 0.3 0.2 0.2 0.3 0.2 0.3 0.3 0.2 0.5 1 0.5 1-1.7 6.2q-1.8 6.3-2 6.6l-0.3 0.2-0.3 0.2-0.2 0.3-1.5 0.3-1.5 0.2 0.2 1 0.3 1 0.3 0.2 0.2 0.3 2.2-0.7q2.3-0.79999 3.6-1.6 1.2-0.70001 1.4-1l0.3-0.2 1.3 5.5q1.2 5.5 4.2 7.7 3 2.3 4 2.6l1 0.2 0.2 1 0.3 1 0.3 0.2 0.2 0.3h4l1-0.5 1-0.5 0.2-0.3 0.3-0.2 0.3-0.2 0.2-0.3-2-0.5q-2-0.5-3.2-1.2l-1.3-0.8-0.3-2.5-0.2-2.5 1 0.2 1 0.3 0.2 0.3 0.3 0.2 0.3 0.2 0.2 0.3h4.5q4.5 0 7.5-2t3.2-2.3l0.3-0.2 0.3-0.2 0.2-0.3h2l0.2 0.3 0.3 0.2v3q0 3 0.29999 4l0.2 1 1-0.2 1-0.3 1-0.5 1-0.5h2l1 0.3 1 0.2-0.2-1.5-0.3-1.5-0.5-1q-0.5-1-0.5-9v-8l0.3-1.5 0.2-1.5 2 0.2 2 0.3 0.2 0.3 0.3 0.2 0.5 1 0.5 1 0.5 1 0.5 1 0.7 1.8q0.79999 1.7 4 2.4 3.3 0.79999 2.3 5.3t-2.5 7.5-1.2 5q0.20001 2-0.79999 2t-4.5 5.2q-3.5 5.3-4.5 5.6-1 0.20001-1.8 7.7-0.70001 7.5-3.4 9.3-2.8 1.7-5.8 1.4-3-0.20001-4.2 5.3-1.3 5.5-2.3 6.5t-1.5 2l-0.5 1-0.3 0.2-0.2 0.3h-2l-0.2-0.3-0.3-0.2-0.3-0.2-0.2-0.3-2-0.5-2-0.5-0.2-0.3-0.3-0.2-0.5-1-0.5-1-0.3-0.2-0.2-0.3-0.2-0.3-0.3-0.2-0.3-0.2-0.2-0.3-0.2-0.3-0.3-0.2v-3.5q0-3.5 1.5-8l1.5-4.5 0.3-0.2 0.2-0.3 0.2-0.3 0.3-0.2v-3l-0.3-0.2-0.2-0.3-1-0.3-1-0.2-0.2 1-0.3 1-0.5 1-0.5 1-0.3 0.2-0.2 0.3-0.2 0.3-0.3 0.2-0.3 0.2-0.2 0.3-4.2 3.3q-4.3 3.2-3.6 6.2 0.79999 3-3 6.5-3.7 3.5-7 8.3-3.2 4.7-4.7 5-1.5 0.20001-2 2.2t-2.7 3.5q-2.3 1.5-2.6 2.5-0.20001 1-1.4 1.5-1.3 0.5-3 8.5-1.8 8-0.29999 8t2 3.2q0.5 3.3 4 5.8t4.5 2l1-0.5 0.2-0.3 0.3-0.2 0.3 0.2 0.2 0.3 0.2 0.3 0.3 0.2v1l-0.3 0.2-0.2 0.3-0.2 0.3-0.3 0.2-0.3 0.2-0.2 0.3-0.2 0.3-0.3 0.2v4l-0.3 0.2-0.2 0.3-0.2 0.3-0.3 0.2-0.3 0.2q-0.20001 0.29999-3 0-2.7-0.20001-5.4 3-2.8 3.3-5 4-2.3 0.79999-0.59998 1.3 1.8 0.5-1.7 4.3-3.5 3.7-9 7.2t-5.3 8.8q0.29999 5.2-1.7 12.2t-6.3 7.2l-4.2 0.3 0.2 0.3 0.3 0.2 0.3 0.2 0.2 0.3 0.2 0.3 0.3 0.2 0.3 0.2 0.2 0.3 0.2 0.3 0.3 0.2 2 2q2 2 2.5 5t0 6l-0.5 3-0.5 1-0.5 1-0.5 3-0.5 3-0.3 0.2-0.2 0.3-1 0.3-1 0.2 0.2-2 0.3-2v-2q0-2-1.7-2.5l-1.8-0.5v-2h-4l0.2 2.5 0.3 2.5 0.5 1 0.5 1 0.3 4.5q0.20001 4.5 2.2 4.5t2 1 2.8 3.5q2.7 2.5 2.2 5.5t-1.5 5 0.70001 2.5q1.8 0.5 1.8 4.3 0 3.7-1.8 5-1.7 1.2-1.2 4.2t1.5 3-1.7 2.8q-2.8 2.7-3.8 3-1 0.20001-4.2 5.2-3.3 5-3.8 7.5t-3 3-5.5 3.5-5.7 10q-2.8 7-7.6 10.5-4.7 3.5-4.4 4.5 0.20001 1-1.6 2.5-1.7 1.5-3.2 10.5t0.20001 16.8q1.8 7.7 2.8 10 1 2.2 2 2.2t3.8 4.5q2.7 4.5 3 6.5 0.20001 2 1.4 2.5 1.3 0.5 2.8 3.5t6.5 11 5 15 0 10.5v3.5l-0.3 0.2-0.2 0.3-0.2 0.3-0.3 0.2-0.3 0.2-0.2 0.3-0.2 0.3-0.3 0.2-0.3 0.2-0.2 0.3-0.2 0.3-0.3 0.2-0.3 0.2-0.2 0.3-0.2 0.3-0.3 0.2-0.3 0.2-0.2 0.3-0.2 0.3-0.3 0.2-0.3 0.2-0.2 0.3-1.5 0.3-1.5 0.2-0.2-1.5q-0.29999-1.5-1.6-2-1.2-0.5-1.7-2.5t-3.5-2.2q-3-0.29999-6-3.8t-4-5.8q-1-2.2-2-2.4-1-0.29999-3.5-3-2.5-2.8-3.5-2.8t-1.2-1q-0.29999-1 0.40002-3.5 0.79999-2.5-1.2-2.3-2 0.29999-2.2-5-0.29999-5.2-1.3-8.7t-3.3-3.7q-2.2-0.29999-6.2-4.8t-8.5-5.5-6.5 1.5-6.5 4-6.3-0.20001q-1.7-1.8-5-3-3.2-1.3-13.2-0.29999t-12.2 1.3q-2.3 0.20001-12 2-9.8 1.7-13.8 2.2l-4 0.5h-4l-0.2 0.3-0.3 0.2-0.3 0.2-0.2 0.3-1 0.3-1 0.2v2l5 0.8q5 0.70001 5.2 1 0.29999 0.20001 0.59998 0.40002l0.2 0.3 0.2 0.3 0.3 0.2 0.5 2 0.5 2 0.3 1.5 0.2 1.5-1-0.2-1-0.3-0.2-0.3-0.3-0.2-0.3-1-0.2-1-2.5 0.8q-2.5 0.70001-2 2 0.5 1.2-5.5 2.2t-7-0.79999q-1-1.7-2.5-1.4-1.5 0.20001-1.5-0.79999t-4.2-1.5q-4.3-0.5-6 1.3-1.8 1.7-7.8 0.70001-6-1-10-1.3-4-0.20001-5.5 1.6-1.5 1.7-5 1.7t-4.5-0.29999q-1-0.20001-2.5 3.6-1.5 3.7-6 7.2t-5.5 3.8q-1 0.20001-1 1.2 0 1-3.5 1.8-3.5 0.70001-6.3 3-2.7 2.2-4.4 5-1.8 2.7-2.8 3-1 0.20001-1.2 3.2-0.29999 3-1.3 4.5t0.70001 7.7q1.8 6.3 2.6 12.6 0.70001 6.2-0.59998 7.4-1.2 1.3-3 1.6-1.7 0.20001-2.7 20.2t1.3 27.5q2.2 7.5 3.4 8 1.3 0.5 3.6 6.7 2.2 6.3 7.4 11 5.3 4.8 6.6 9 1.2 4.3 5.7 7.3t11.5 5 8 3.5 7.5 1 10-2 12-4 9-0.79999q0.5 1.8 4.7 0.29999 4.3-1.5 5.6-4.3 1.2-2.7 2.7-4.4 1.5-1.8 2.5-1.8t2.5-5.8q1.5-5.7 2.3-9 0.70001-3.2 1.2-7.7 0.5-4.5 4.2-7.3 3.8-2.7 16.3-6.2t14-3.5 5.5 0h4l0.2-0.3 0.3-0.2 0.3-0.2 0.2-0.3h2l0.2 0.3 0.3 0.2-0.5 5q-0.5 5-2.2 6-1.8 1-3.6 6.5-1.7 5.5-1.7 8.5t0 7.5-0.70001 7.7q-0.79999 3.3-2.3 3-1.5-0.20001-1.5-1.2 0-1-1-1h-1l0.8 6.5q0.70001 6.5 0.70001 15.5t-2 11.5-2.5 3.5l-0.5 1-0.3 0.2-0.2 0.3-0.2 0.3-0.3 0.2-0.3 1-0.2 1 1.5 0.2 1.5 0.3 2 0.5 2 0.5 6-1.5q6-1.5 14.5-3t11.5-3 12-2.5 13.2-0.29999q4.3 0.79999 5.6 3.3 1.2 2.5 7.2 2.7 6 0.29999 5.8 3-0.29999 2.8 0.70001 6.8t-1 8.5-0.5 13.5 2.2 9.8q0.79999 0.70001-0.70001 1-1.5 0.20001-1.7 2.7-0.29999 2.5 0.20001 4t-0.5 5.5 1.5 6.5 4.8 5.7q2.2 3.3 8.7 6.8t19.5 4.5 18-1.5 8.8-4.8q3.7-2.2 4.4-3.4 0.79999-1.3 4.8-2.3t12-0.5 14 3.5 10.5 2.5 11.3-9.8q6.7-9.2 8-8.7 1.2 0.5 1.7-10t3.5-12.7q3-2.3 7-3.3t6-4.5 7.8-5.2q5.7-1.8 9.2-5.3t3.8-4.5q0.20001-1 3.2-2t3.5-4.5 2-4.3q1.5-0.70001 1.7-1l0.3-0.2 0.3-0.2 0.2-0.3 0.2-0.3 0.3-0.2 0.3-0.2 0.2-0.3 0.2-0.3 0.3-0.2 0.3-0.2 0.2-0.3 0.2-0.3 0.3-0.2 0.3-0.2 0.2-0.3h4l0.2 0.3 0.3 0.2 0.3 0.2 0.2 0.3 0.2 0.3 0.3 0.2v3l-0.5 1.5-0.5 1.5-0.5 1q-0.5 1-1 2t-3.8 2.2l-3.2 1.3 0.2 0.3 0.3 0.2 0.5 1 0.5 1 0.3 0.2 0.2 0.3 0.2 0.3 0.3 0.2 1.7 2.5q1.8 2.5 3.8 2t2 14v14.5h-41v62l-19-0.2q-19-0.30005-19.8-2-0.70001-1.8-6-7-5.2-5.3-10.7-12.8t-11-8.2q-5.5-0.80005-7.7 3.7-2.3 4.5-6 6.7l-3.8 2.3-0.2 0.3-0.3 0.2-0.3 0.2-0.2 0.3 0.2 0.3 0.3 0.2 2.7 3.2q2.8 3.3 3 3.6001l0.3 0.2v2l-0.3 0.2-0.2 0.3-1 0.5-1 0.5-1 0.5-1 0.5-0.2 0.3-0.3 0.2-0.3 0.2-0.2 0.3-1 0.5-1 0.5-1.5 0.5q-1.5 0.5-3.5 0.19995-2-0.19995-2-2.7t-5-2.3q-5 0.30005-7-1.2t-17-2.2q-15-0.80005-16.5-4.6001-1.5-3.7-8-6.7t-13-3-10-1.5l-3.5-1.5-0.2-0.3-0.3-0.2-0.3-0.2-0.2-0.3-0.2-0.3q-0.29999-0.19995-0.59998-1.7-0.20001-1.5 1.8-2t2-1.5-1.5-1.2q-1.5-0.29999-1.5-3.3t-5-5.5-9-6.5-10.5-6.7q-6.5-2.8-6.3-5.8l0.3-3-0.3-1-0.2-1h-2l-0.2 1q-0.29999 1-1.6 2.2-1.2 1.3-7.2 1.3t-11.5-1-14.5-3.5-14-2.5-12-2.3q-7-2.2-9-4.4-2-2.3-4.2-4.6-2.3-2.2-4.6-2.2-2.2 0-2.2-1t-2-0.5-2.2-1.5q-0.29999-2-3-3.8-2.8-1.7-6.8-3.7t-11-3-10.5 1.5-9.5 4.5-18.2-0.70001q-12.3-2.8-22-6-9.8-3.3-19.8-6.8t-15.5-6.5-8.3-5.3q-2.7-2.2-5-3-2.2-0.70001-11.7-3.7t-12.5-6.5-10.5-7.2q-7.5-3.8-7.5-4.8t-1-1-3-2.8q-2-2.7-4-8-2-5.2 0.5-5.7t1.5-4 0-3.7q1-0.29999 1.2-4 0.29999-3.8-1.2-5.8t-2.5-7.5-4.7-9.3q-3.8-3.7-7.6-9.4-3.7-5.8-6-7.3-2.2-1.5-3.4-3.5-1.3-2-4-4.2-2.8-2.3-5-6.6-2.3-4.2-5.3-6.2t-5.7-3.5q-2.8-1.5-3-2.5-0.29999-1-1.6-1.5-1.2-0.5-1.2-4.5t1-4 0.79999-2q-0.29999-2-7.3-8.5t-7.3-10.3q-0.20001-3.7-4.2-5.7t-6-5.7q-2-3.8-3-3.8t-3.5-3.2q-2.5-3.3-5.5-3.6-3-0.20001-1.8-4.2 1.3-4-1.4-13.2-2.8-9.3-3.6-14-0.70001-4.8-3.4-6.6-2.8-1.7-3.3-3.4-0.5-1.8-3.5-2l-3-0.3-1-0.5-1-0.5-0.2-0.3-0.3-0.2-0.3-0.2-0.2-0.3-0.2-0.3-0.3-0.2-0.3-0.2-0.2-0.3h-3l-0.2 0.3-0.3 0.2 1 13q1 13 2.3 13.5 1.2 0.5 4 5 2.7 4.5 6 10.7 3.2 6.3 5 8 1.7 1.8 2.2 6.3t2.2 5.5q1.8 1 3.3 6.5t3.5 6 4.8 8.5q2.7 8 3.4 10.2 0.79999 2.3 2.6 6 1.7 3.8 2.2 4.8t0.5 6 3.7 5.8q3.8 0.70001 5 3.4 1.3 2.8 1.8 4.3l0.5 1.5 0.3 0.2 0.2 0.3 0.2 0.3 0.3 0.2 0.3 0.2 0.2 0.3 0.2 0.3 0.3 0.2v5l-0.3 0.2-0.2 0.3-1 0.5-1 0.5-0.2 0.3-0.3 0.2-0.3 0.2-0.2 0.3-1 0.5-1 0.5h-1l-0.2-0.3-0.3-0.2-0.5-2-0.5-2-0.5-1q-0.5-1-1.5-2.5t-5.3-6.5q-4.2-5-9.2-7.2-5-2.3-6.2-3.6-1.3-1.2-0.59998-3.2 0.79999-2-0.20001-2.2-1-0.29999-1-9 0-8.8-1-8.8t-1.2-1.5q-0.29999-1.5-6-6.7-5.8-5.3-7.8-5.3t-8.8-7.3l-6.7-7.2-0.5-1-0.5-1-0.3-0.2-0.2-0.3-0.2-0.3-0.3-0.2-0.3-0.2-0.2-0.3-0.2-0.3-0.3-0.2-0.3-0.2-0.2-0.3-0.2-0.3-0.3-0.2-0.3-0.2-0.2-0.3 0.2-0.3 0.3-0.2 0.3-0.2 0.2-0.3 0.2-0.3 0.3-0.2 0.3 0.2 0.2 0.3 3.5 1.5q3.5 1.5 4.5 1.5h1l0.2-0.3 0.3-0.2 0.3-0.2 0.2-0.3 0.2-0.3 0.3-0.2 0.5-1 0.5-1 0.5-2 0.5-2v-3l-0.3-0.2-0.2-0.3-0.2-0.3q-0.29999-0.20001-1.3-2.7t-6.5-8-8.5-16-7-22.5-4.5-18.5-3.5-11-5.3-5.3q-2.2-0.70001-3.2-3.4-1-2.8-3-3-2-0.29999-5-2.6-3-2.2-3.2-3.2-0.3-1-5.8-3.5t-6-7.5-1.5-8-4-9.5-2-11.5-1.3-6.8q-2.2-1.7-3-7-0.7-5.2-1.4-7-0.8-1.7-2.6-7.4-1.7-5.8-2.2-13.3t-1.5-15.5 1-10.5 3.5-11.5 2.5-15.5 4-11 4.5-9 7-17 7-29.5 3.8-17.8l2.2-0.7-0.2-0.3q-0.3-0.20001-1.6-0.70001-1.2-0.5-1.2-1.5t-1-1.2q-1-0.29999-2.5-2.8t-8.3-14.2q-6.7-11.8-7.7-18.3t2.3-6.7q3.2-0.29999 3.2-13.6 0-13.2-2-13.7t-1.2-4q0.7-3.5-1.8-7.5t-2.2-9.5q0.2-5.5 1.2-5.7 1-0.29999 3-5 2-4.8 1-4.8t-1-2.2q0-2.3-1.5-2.8t-1.7-4.2l-0.3-3.8 0.3-0.2 0.2-0.3-0.2-0.3-0.3-0.2-0.5-1-0.5-1-0.3-0.2-0.2-0.3-0.2-0.3-0.3-0.2-1 4q-1 4-1.5 5l-0.5 1-0.5 1-0.5 1-0.3 0.2-0.2 0.3h-1l-0.2-0.3-0.3-0.2-0.5-2.5-0.5-2.5-0.3-0.2-0.2-0.3-0.2-0.3-0.3-0.2-0.3 1.5-0.2 1.5h-2v-4q0-4-1-4t-0.8-2.5q0.3-2.5 1.8-4t1-5.5 0.5-8.5 6.3-5.5l5.2-1 0.2-1.5 0.3-1.5 0.3-1 0.2-1-1 0.2-1 0.3-0.2 0.3-0.3 0.2-0.3 0.2-0.2 0.3-1 0.5-1 0.5-3.8 1.7q-3.7 1.8-4.2 3.3l-0.5 1.5-0.3 0.2-0.2 0.3-0.2 0.3-0.3 0.2-0.3 1-0.2 1h-3l0.2-5q0.3-5 0.8-14.5t2-10.5-0.8-3.2q-2.2-2.3-3.4-8.6-1.3-6.2-3.3-10.2t-2-7-6-10.5-10.3-10.7q-4.2-3.3-5.7-5.8t-2.5-5.2q-1-2.8-2-3-1-0.3-2-2.6-1-2.2-2-2.4-1-0.3-1.2-1.6-0.3-1.2 1-0.7 1.2 0.5 1.2-3.5v-4l-2-0.2-2-0.3-0.2-0.3-0.3-0.2-0.3-0.2-0.2-0.3-0.2-0.3-0.3-0.2-0.3-0.2-0.2-0.3h-1q-1 0-1.5 2.3-0.5 2.2-2 3-1.5 0.7-5.5 1.2t-5.5-0.5-10.5-2l-9-1-0.2-0.3-0.3-0.2-0.3-0.2-0.2-0.3-0.2-0.3-0.3-0.2-0.3-0.2-0.2-0.3-0.2-0.3-0.3-0.2v-3l0.3-0.2 0.2-0.3 1.5-0.3 1.5-0.2 0.2-1.5 0.3-1.5 5.3-3.2q5.2-3.3 5.7-3.8t5-1l4.5-0.5 2-0.5 2-0.5-0.2-0.3-0.3-0.2-0.3-0.2-0.2-0.3-4-0.5-4-0.5-0.2-0.3-0.3-0.2-0.3-0.2-0.2-0.3-0.2-0.3q-0.3-0.2-3 1-2.8 1.3-11.8 3.3t-13 3-2.8 3.3q1.3 2.2 0.60001 3.4-0.8 1.3-15.3 1.3t-18.5 1-11.5-0.5-10.5-0.5-8.5-0.3q-5.5-1.2-5.3-2.2 0.3-1-3.4-2-3.8-1-4.8 0.2-1 1.3-2.5-3.4-1.5-4.8-5-4.6l-3.5 0.3-0.2-0.3-0.3-0.2-0.3-0.2-0.2-0.3-1-0.5-1-0.5-0.2-0.3-0.3-0.2-0.5-1.5-0.5-1.5v-2l0.3-0.2 0.2-0.3h3l7 1q7 1 8.2 2.7 1.3 1.8 1 2.8-0.2 1 11.8 1.8 12 0.7 19.8-0.60001 7.7-1.2 10.4-3 2.8-1.7 3-2l0.3-0.2 0.3-0.2 0.2-0.3 0.2-0.3 0.3-0.2 0.3-0.2 0.2-0.3 1-0.5 1-0.5 1-0.5 1-0.5-0.2-0.3-0.3-0.2-0.3-0.2-0.2-0.3-0.2-0.3-0.3-0.2-0.3-0.2-0.2-0.3-1-0.5q-1-0.5-1.8-1.8-0.7-1.2-3.4-1.2-2.8 0-2.6-5.5 0.3-5.5-1.2-7.5t-5.2-3.2l-3.8-1.3-0.2-0.3-0.3-0.2-0.3-1.5-0.2-1.5 1-0.2 1-0.3 0.2-0.3 0.3-0.2 0.3-0.2 0.2-0.3 0.2-0.3 0.3-0.2 0.3-0.2q0.2-0.3 5.4-4.6 5.3-4.2 7.6-5 2.2-0.7 3-3l0.7-2.2 0.3-0.2 0.2-0.3 3-0.5 3-0.5-0.2-0.3-0.3-0.2-0.3-1.5-0.2-1.5-1 0.2-1 0.3-2.5 0.5q-2.5 0.5-4.3 2.2-1.7 1.8-4 2l-2.2 0.3-1-0.5-1-0.5-1-0.5-1-0.5-0.2-0.3-0.3-0.2-0.5-1.5-0.5-1.5v-2l0.5-1 0.5-1 1.3-5.2q1.2-5.3 4.4-6.6 3.3-1.2 3.3-3.7t2.3-6.7q2.2-4.3 10.4-4.6 8.3-0.2 12-2 3.8-1.7 6.3-1.4 2.5 0.2 3 3.4 0.5 3.3 6 5.8t9 2.5 5.7-2.3q2.3-2.2 2.8-4.2l0.5-2 0.3 0.2 0.2 0.3 1 0.5 1 0.5 1 0.3 1 0.2 0.2-1 0.3-1v-2l-0.3-0.2-0.2-0.3-1-0.5-1-0.5-1.5-0.5q-1.5-0.5-4.5-1.5t-3.8-3.7q-0.7-2.8-3.7-7.3t-3.5-7 1-5 3.2-3.7q1.8-1.3 2.6-5.6l0.7-4.2 0.3-0.2 0.2-0.3h3l4.8 2.3q4.7 2.2 5 3.7 0.2 1.5 3.2 0.7 3-0.7 4 0.3t2 1.5l1 0.5 0.2 0.3 0.3 0.2 0.3 0.2 0.2 0.3 0.2 0.3 0.3 0.2-0.7 1.8q-0.8 1.7-2 2.4-1.3 0.8-1.3 1.8t0.5 3l0.5 2 0.3 0.2 0.2 0.3 0.2 0.3 0.3 0.2 0.3 0.2 0.2 0.3 0.2 0.3 0.3 0.2 0.3 0.2 0.2 0.3h4l0.2-0.3 0.3-0.2 0.3-0.2 0.2-0.3 1-0.3 1-0.2 0.2-1.5 0.3-1.5 1-6.5q1-6.5 3-9t3.7-10.7q1.8-8.3 6.3-9.3t7 2 8 3 10 0 7 3 6 2.5 5-1 4.5 2 8 4.2q5 1.8 4.5 4.8t1.3 3.5q1.7 0.5 1.4 3-0.2 2.5 2 3.5 2.3 1 2.8 6.5t2.8 7.7q2.2 2.3 3.4 2.6 1.3 0.2 2.8 2.7t1.8 6q0.2 3.5 3 6 2.7 2.5 3.4 3.7 0.79999 1.3 3.8 2.8t5.2 4.8q2.3 3.2 4 7 1.8 3.7 5 6.4 3.3 2.8 4.3 7.8t1.7 7.5q0.79999 2.5 3.8 3.3 3 0.7 4-0.8t4.8-0.8q3.7 0.8 4.4 2 0.79999 1.3 2.3 1.6 1.5 0.2 0.70001 3.7-0.70001 3.5 1.6 2.7 2.2-0.7 4.7 0 2.5 0.8 2.5 2.3t3.2 1q3.3-0.5 5-3.7 1.8-3.3 7.3-3.8t7.3-2.8q1.7-2.2 3.4 6 1.8 8.3 3.3 9.3t2-0.3q0.5-1.2 3.5-3 3-1.7 3 3.3t2.2 4.3q2.3-0.8 2.6-1.8 0.20001-1 4.7 0.2 4.5 1.3 7 4.8t6.7 6.8q4.3 3.2 7 6 2.8 2.7 7.6 4 4.7 1.2 6.7 5.2t-1 5.5-3.7 2.7q-0.79999 1.3 6.2 4.3t14.5 2.3q7.5-0.8 8 0.39999 0.5 1.3 2.7 2 2.3 0.8 2.6 1.8 0.20001 1 2 0.5 1.7-0.5 1.7-4.5t-0.5-5 0.79999-2.2q1.2-1.3 8.2-3 7-1.8 8 1.2t2.8 3q1.7 0 1.2 1.5t0.20001 3.5q0.79999 2 3.6 2 2.7 0 5.4 2.2 2.8 2.3 13.8 2.6 11 0.2 11.5-4.3t1.5-4.5 0.5-2.8q-0.5-2.7-4-4-3.5-1.2-3.5-2.7t2.2-2.5q2.3-1 3.6-4.8 1.2-3.7 3-3.4 1.7 0.2 2 1.2 0.20001 1 3.2 1.5t4.8 4q1.7 3.5 1.2 6.5t-3.8 3.5q-3.2 0.5-2.2 2.7 1 2.3 3 2.6 2 0.2 2.5 6.2t1.7 5q1.3-1 1.8-4.5t3.5-6.5 3.3-5.2q0.20001-2.3-1.6-3-1.7-0.8-2-5.6-0.20001-4.7-3.2-5-3-0.2-3.2-2.2-0.29999-2-2.3-4t-2.7-11.5q-0.79999-9.5 0.70001-9.5t2.3-8q0.70001-8 0-10.5-0.79999-2.5 3.4-2 4.3 0.5 3.8 4t-0.79999 6.7q-0.20001 3.3 1.3 5 1.5 1.8 2.5 1.8t5.2 9.5q4.3 9.5 4.3 13.5t4.3 4.2q4.2 0.3 5.2 1.8t0 1.8q-1 0.2 0.79999 3.7 1.7 3.5 3 0 1.2-3.5 4.7-2.7 3.5 0.7 4.7 1.4 1.3 0.8 2 6 0.79999 5.3 1.3 8.3 0.5 3 3 6t4.7 1.7q2.3-1.2 0.29999-6.2t0.29999-5q2.2 0 2.7-7.8 0.5-7.7-0.70001-10.4-1.3-2.8-0.79999-5.3 0.5-2.5 2.2-3.3 1.8-0.7 5-1 3.3-0.2 3.6-1.2z" stroke="#b7da7b"/>
   <path d="m521 136.5l-1-9 7.2 0.3q7.3 0.2 8.8 2.7t2.8-0.3q1.2-2.7 43.7-3 42.5-0.2 42.5 2.3t1.8 2q1.7-0.5 2-2 0.20001-1.5 3 0 2.7 1.5 3 4 0.20001 2.5 4.2 3t3.5 1.7q-0.5 1.3-3.3 3-2.7 1.8-1.7 2.8t1.3 3q0.20001 2 5 2.5 4.7 0.5 6.4 1.7 1.8 1.3 4.8 0.8t7.5-0.5 6.5 2 9 1.3q7-0.8 7 14.2t-3.2 14q-3.3-1-10-4.2-6.8-3.3-8.6-2.6-1.7 0.8-1.4 2.6 0.20001 1.7 1.4 3 1.3 1.2 1 3.4-0.20001 2.3 6.8 5.3t10.2 3.7q3.3 0.8 3.6 11.8 0.20001 11-2.8 10.8-3-0.3-4.5 0l-1.5 0.2 0.2 1 0.3 1 0.3 0.2 0.2 0.3 0.2 0.3 0.3 0.2 0.3 0.2 0.2 0.3 3.5 1.3q3.5 1.2 3.5 7.2v6l-3-0.2q-3-0.3-6.5-1.3t-4 0.7q-0.5 1.8-3 1.6-2.5-0.3-8-3.6-5.5-3.2-5.3-4.2 0.29999-1-2-1.2-2.2-0.3-7.2-3.3t-5.8-4.3q-0.70001-1.2-3.4-1.4-2.8-0.3-3.8 2.4-1 2.8-4 3-3 0.3-4.5 2.3t-6 2.5l-4.5 0.5-1.5-0.3-1.5-0.2-0.2-1-0.3-1-0.3-0.2-0.2-0.3-0.2-0.3-0.3-0.2v-5l0.3-0.2 0.2-0.3 0.2-0.3 0.3-0.2 0.5-1 0.5-1v-1l-0.3-1.5q-0.20001-1.5 4.8-2.3 5-0.7 8-2.2t3.2-1.8l0.3-0.2 0.5-1q0.5-1 1.2-3 0.79999-2-2-3.5-2.7-1.5-1.2-12.5l1.5-11-0.3-0.2-0.2-0.3-0.2-0.3-0.3-0.2-0.3-0.2-0.2-0.3-0.2-0.3-0.3-0.2-0.3-0.2-0.2-0.3-0.2-0.3-0.3-0.2-0.3-0.2-0.2-0.3-0.2-0.3-0.3-0.2-0.3-0.2-0.2-0.3-1-0.5-1-0.5-0.2-0.3-0.3-0.2-0.5 1-0.5 1-0.3 0.2-0.2 0.3-0.2 0.3-0.3 0.2-0.3 0.2-0.2 0.3-3.5 0.3q-3.5 0.2-3.3 1.7 0.29999 1.5-0.40002 4.7l-0.8 3.3-0.2 0.3-0.3 0.2-0.3 0.2-0.2 0.3-1 0.5-1 0.5-1 0.5-1 0.5h-2l-0.2-0.3-0.3-0.2-0.3-0.2-0.2-0.3-0.2-0.3-0.3-0.2-0.5-1-0.5-1-0.5-1.5-0.5-1.5v-6l0.5-1.5 0.5-1.5 0.3-0.2 0.2-0.3 0.2-0.3 0.3-0.2 0.3-0.2 0.2-0.3 1.5-0.5q1.5-0.5 4.5 0.5t3.2 0.7q0.29999-0.2 0.59998-0.39999l0.2-0.3 1.5-0.5 1.5-0.5 2-0.3 2-0.2v-2l-1-0.2-1-0.3-1.5-0.5-1.5-0.5-2.5-0.3q-2.5-0.2-2.5 1.3t-1.5 1.3q-1.5-0.3-1.5-3.6v-3.2l-2 0.2q-2 0.3-3 1.8l-1 1.5-0.2 0.3-0.3 0.2-0.3 0.2-0.2 0.3-0.2 0.3-0.3 0.2-0.3-0.2-0.2-0.3-0.2-0.3-0.3-0.2-0.3-0.2-0.2-0.3-0.2-0.3-0.3-0.2v-1q0-1 1.3-1.8 1.2-0.7 1.4-2 0.29999-1.2-3-2-3.2-0.7-7-4-3.7-3.2-7-4.2l-3.2-1 0.2 1q0.29999 1 0 3.5-0.20001 2.5-5.2 2.5t-5 1.5-2 1.5h-2l-0.5 0.2q-0.5 0.3-0.5 0.60001v0.2l-0.5 0.2q-0.5 0.3-0.5 0.60001v0.2h-2l-0.2-0.5q-0.29999-0.5-0.59998-0.5h-0.20001l-1 0.2q-1 0.3-13.5-0.2t-15-1.8l-2.5-1.2-0.2-1-0.3-1-0.3-0.2-0.2-0.3-0.2-0.3-0.3-0.2-0.3-2q-0.20001-2 1.3-2.2 1.5-0.3 2.5-0.60001l1-0.2v-2l-3.5 0.2q-3.5 0.3-4.5-0.2t-2-9.5z" stroke="#b8db7c"/>
  </g>
 </g>
</svg>
